# xmcd
# Track frame offsets:
# 182
# 11882
# 25745
# 38457
# 49920
# 63757
# 77437
# 88695
# 106045
# 126695
# 142995
# 156282
# 176070
# 191670
#
# Disc length: 2726 seconds
# Revision: 0
# Processed by: cddbd v1.5.2PL0 Copyright (c) Steve Scherf et al.
# Submitted via: VisiTrax 2.11.1.266 - For more info visit www.synapsa.com
#
DISCID=b10aa40e
DTITLE=Acoustic Shock - Shocking
DYEAR=1994
DGENRE=Country
TTITLE0=John Hardy
TTITLE1=Ragtime Annie
TTITLE2=Why Don't You Love Me
TTITLE3=Hot Corn - Cold Corn
TTITLE4=Daybreak In Dixie
TTITLE5=Sing - Sing - Sing
TTITLE6=St.Annes Reel
TTITLE7=Embers
TTITLE8=Gold Rush
TTITLE9=Little Home On The Hill
TTITLE10=Country Boy Rock 'N Roll
TTITLE11=Bury Me Beneath The Willows
TTITLE12=Steel Guitar Rag
TTITLE13=Long Gone
EXTD=Play Country Bluegrass
EXTT0=
EXTT1=
EXTT2=
EXTT3=
EXTT4=
EXTT5=
EXTT6=
EXTT7=
EXTT8=
EXTT9=
EXTT10=
EXTT11=
EXTT12=
EXTT13=
PLAYORDER=
